<mxfile host="app.diagrams.net" modified="2023-06-28T16:16:44.832Z" agent="Mozilla/5.0 (Windows NT 10.0; Win64; x64) AppleWebKit/537.36 (KHTML, like Gecko) Chrome/114.0.0.0 Safari/537.36" etag="n3-R5SmHWayb4TBpis-s" version="21.5.1" type="device">
  <diagram id="C5RBs43oDa-KdzZeNtuy" name="Page-1">
    <mxGraphModel dx="743" dy="423" grid="1" gridSize="10" guides="1" tooltips="1" connect="1" arrows="1" fold="1" page="1" pageScale="1" pageWidth="827" pageHeight="1169" math="0" shadow="0">
      <root>
        <mxCell id="WIyWlLk6GJQsqaUBKTNV-0" />
        <mxCell id="WIyWlLk6GJQsqaUBKTNV-1" parent="WIyWlLk6GJQsqaUBKTNV-0" />
        <mxCell id="eBZOtz-xoTch_VDVBgHP-3" value="fetch.py" style="swimlane;whiteSpace=wrap;html=1;" vertex="1" parent="WIyWlLk6GJQsqaUBKTNV-1">
          <mxGeometry x="420" y="140" width="120" height="280" as="geometry" />
        </mxCell>
        <mxCell id="eBZOtz-xoTch_VDVBgHP-4" value="&lt;div&gt;get_username&lt;/div&gt;&lt;div&gt;get_user_info&lt;/div&gt;&lt;div&gt;get_collection&lt;/div&gt;&lt;div&gt;getAll_like&lt;/div&gt;&lt;div&gt;getAll_collection&lt;/div&gt;&lt;div&gt;get_by_author&lt;/div&gt;&lt;div&gt;getAll_by_author&lt;/div&gt;&lt;div&gt;get_by_uploader&lt;/div&gt;&lt;div&gt;getAll_by_uploader&lt;/div&gt;&lt;div&gt;get_by_tag&lt;/div&gt;&lt;div&gt;getAll_by_tag&lt;/div&gt;&lt;div&gt;get_doujinshi&lt;/div&gt;&lt;div&gt;get_tag&lt;/div&gt;&lt;div&gt;get_by_id&lt;/div&gt;&lt;div&gt;get_random&lt;/div&gt;&lt;div&gt;get_random_by_tag&lt;/div&gt;&lt;div&gt;get_random_tag&lt;/div&gt;" style="text;html=1;align=left;verticalAlign=middle;resizable=0;points=[];autosize=1;strokeColor=none;fillColor=none;" vertex="1" parent="eBZOtz-xoTch_VDVBgHP-3">
          <mxGeometry y="20" width="130" height="260" as="geometry" />
        </mxCell>
        <mxCell id="eBZOtz-xoTch_VDVBgHP-5" value="operate.py" style="swimlane;whiteSpace=wrap;html=1;" vertex="1" parent="WIyWlLk6GJQsqaUBKTNV-1">
          <mxGeometry x="280" y="140" width="120" height="190" as="geometry" />
        </mxCell>
        <mxCell id="eBZOtz-xoTch_VDVBgHP-6" value="&lt;div&gt;create_doujinshi_url&lt;/div&gt;&lt;div&gt;get_doujinshi_id&lt;/div&gt;&lt;div&gt;get_author_id&lt;/div&gt;&lt;div&gt;get_tag_id&lt;/div&gt;&lt;div&gt;add_tag&lt;/div&gt;&lt;div&gt;insert_doujinshi&lt;/div&gt;&lt;div&gt;insert_unconfirmed&lt;/div&gt;&lt;div&gt;remove_tag&lt;/div&gt;&lt;div&gt;remove_doujinshi&lt;/div&gt;&lt;div&gt;get_recover_id&lt;/div&gt;&lt;div&gt;recover_doujinshi&lt;/div&gt;" style="text;html=1;align=left;verticalAlign=middle;resizable=0;points=[];autosize=1;strokeColor=none;fillColor=none;" vertex="1" parent="eBZOtz-xoTch_VDVBgHP-5">
          <mxGeometry y="20" width="130" height="170" as="geometry" />
        </mxCell>
        <mxCell id="eBZOtz-xoTch_VDVBgHP-25" style="edgeStyle=orthogonalEdgeStyle;rounded=0;orthogonalLoop=1;jettySize=auto;html=1;exitX=0.5;exitY=1;exitDx=0;exitDy=0;entryX=0.5;entryY=0;entryDx=0;entryDy=0;endArrow=none;endFill=0;" edge="1" parent="WIyWlLk6GJQsqaUBKTNV-1" source="eBZOtz-xoTch_VDVBgHP-7" target="eBZOtz-xoTch_VDVBgHP-5">
          <mxGeometry relative="1" as="geometry" />
        </mxCell>
        <mxCell id="eBZOtz-xoTch_VDVBgHP-27" style="edgeStyle=orthogonalEdgeStyle;rounded=0;orthogonalLoop=1;jettySize=auto;html=1;exitX=0.5;exitY=1;exitDx=0;exitDy=0;endArrow=none;endFill=0;" edge="1" parent="WIyWlLk6GJQsqaUBKTNV-1" source="eBZOtz-xoTch_VDVBgHP-7" target="eBZOtz-xoTch_VDVBgHP-3">
          <mxGeometry relative="1" as="geometry" />
        </mxCell>
        <mxCell id="eBZOtz-xoTch_VDVBgHP-7" value="core" style="swimlane;whiteSpace=wrap;html=1;" vertex="1" parent="WIyWlLk6GJQsqaUBKTNV-1">
          <mxGeometry x="280" y="80" width="120" height="20" as="geometry" />
        </mxCell>
      </root>
    </mxGraphModel>
  </diagram>
</mxfile>
